<svg width="52" height="52" viewBox="0 0 52 52" fill="none" xmlns="http://www.w3.org/2000/svg">
<path d="M29.7424 16.25C29.1642 16.2499 28.592 16.3657 28.0594 16.5907C27.5268 16.8157 27.0448 17.1452 26.6419 17.5597L26.0033 18.2179L25.3581 17.5597C24.9553 17.145 24.4733 16.8153 23.9407 16.5902C23.4081 16.365 22.8358 16.249 22.2576 16.249C21.6794 16.249 21.1071 16.365 20.5745 16.5902C20.042 16.8153 19.56 17.145 19.1571 17.5597C18.3351 18.4085 17.8755 19.5437 17.8755 20.7252C17.8755 21.9068 18.3351 23.042 19.1571 23.8907L26.0033 30.875L32.8429 23.8907C33.6649 23.042 34.1245 21.9068 34.1245 20.7252C34.1245 19.5437 33.6649 18.4085 32.8429 17.5597C32.4399 17.1452 31.9579 16.8157 31.4253 16.5907C30.8928 16.3657 30.3205 16.2499 29.7424 16.25Z" fill="#183661"/>
<path d="M28.821 48.75L26 47.125L32.5 35.75H42.25C42.677 35.7506 43.0999 35.667 43.4945 35.5039C43.8891 35.3408 44.2476 35.1014 44.5495 34.7995C44.8514 34.4976 45.0908 34.1391 45.2539 33.7445C45.417 33.3499 45.5006 32.927 45.5 32.5V13C45.5006 12.573 45.417 12.1501 45.2539 11.7555C45.0908 11.3609 44.8514 11.0024 44.5495 10.7005C44.2476 10.3986 43.8891 10.1592 43.4945 9.99608C43.0999 9.83298 42.677 9.74936 42.25 9.75H9.75C9.32302 9.74936 8.90012 9.83298 8.50552 9.99608C8.11092 10.1592 7.75239 10.3986 7.45047 10.7005C7.14855 11.0024 6.90918 11.3609 6.74608 11.7555C6.58298 12.1501 6.49936 12.573 6.5 13V32.5C6.49936 32.927 6.58298 33.3499 6.74608 33.7445C6.90918 34.1391 7.14855 34.4976 7.45047 34.7995C7.75239 35.1014 8.11092 35.3408 8.50552 35.5039C8.90012 35.667 9.32302 35.7506 9.75 35.75H24.375V39H9.75C8.02609 39 6.37279 38.3152 5.15381 37.0962C3.93482 35.8772 3.25 34.2239 3.25 32.5V13C3.25 11.2761 3.93482 9.62279 5.15381 8.40381C6.37279 7.18482 8.02609 6.5 9.75 6.5H42.25C43.9739 6.5 45.6272 7.18482 46.8462 8.40381C48.0652 9.62279 48.75 11.2761 48.75 13V32.5C48.75 34.2239 48.0652 35.8772 46.8462 37.0962C45.6272 38.3152 43.9739 39 42.25 39H34.3931L28.821 48.75Z" fill="#183661"/>
</svg>




