<svg width="30" height="29" viewBox="0 0 30 29" fill="none" xmlns="http://www.w3.org/2000/svg">
<path d="M13.2584 3.42857H8.19378C6.65868 3.42857 5.18645 4.03061 4.10097 5.10225C3.01549 6.17388 2.40567 7.62733 2.40567 9.14286V21.2857C2.40567 22.8012 3.01549 24.2547 4.10097 25.3263C5.18645 26.398 6.65868 27 8.19378 27H20.4935C22.0286 27 23.5009 26.398 24.5863 25.3263C25.6718 24.2547 26.2816 22.8012 26.2816 21.2857V16.2857M18.323 2H26.2816C26.681 2 27.0428 2.16 27.3047 2.41857M27.3047 2.41857C27.5761 2.68642 27.7286 3.04972 27.7287 3.42857V11.2857M27.3047 2.41857L26.2816 3.42857L16.876 12.7143" stroke="#05244E" stroke-width="3" stroke-linecap="round" stroke-linejoin="round"/>
</svg>
