<svg width="52" height="52" viewBox="0 0 52 52" fill="none" xmlns="http://www.w3.org/2000/svg">
<path d="M42.4017 18.798C41.5545 18.486 36.959 17.9183 33.9885 17.5847C34.4543 14.8655 34.6667 12.3738 34.6667 9.75C34.6667 6.76216 32.2357 4.33333 29.25 4.33333C26.2643 4.33333 23.8333 6.76216 23.8333 9.75C23.8333 13.8125 22.3903 15.6823 20.332 17.7645C19.731 16.9611 18.9516 16.3082 18.0552 15.8574C17.1588 15.4066 16.17 15.1701 15.1667 15.1667C11.583 15.1667 8.66666 18.083 8.66666 21.6667V34.6667C8.66666 38.2503 11.583 41.1667 15.1667 41.1667C16.8025 41.1667 18.2823 40.5383 19.4242 39.5373L19.8315 39.9555C21.9115 41.5502 27.7767 43.3333 32.5022 43.3333C36.5733 43.3333 38.1528 42.6985 39.5503 42.1352L40.235 41.8687C42.042 41.2078 43.6497 39.2102 43.9963 37.102L45.4393 24.1583C45.8142 21.9115 44.4795 19.5542 42.4017 18.798ZM15.1667 36.8333C13.9728 36.8333 13 35.8627 13 34.6667V21.6667C13.0249 21.1088 13.2641 20.582 13.6677 20.1961C14.0713 19.8101 14.6082 19.5947 15.1667 19.5947C15.7251 19.5947 16.262 19.8101 16.6656 20.1961C17.0692 20.582 17.3084 21.1088 17.3333 21.6667V34.6667C17.3333 35.8627 16.3605 36.8333 15.1667 36.8333ZM39.7085 36.5083C39.6283 36.9937 39.0758 37.6805 38.7487 37.7997L37.934 38.116C36.7532 38.5905 35.7327 39 32.5 39C28.353 39 23.5777 37.3685 22.464 36.517C22.1217 36.257 21.6667 35.295 21.6667 34.6667V23.8767C21.6732 23.7748 21.7772 22.4553 23.1985 21.034C25.1767 19.0537 28.1667 16.0637 28.1667 9.75C28.1667 9.15416 28.6542 8.66666 29.25 8.66666C29.8458 8.66666 30.3333 9.15416 30.3333 9.75C30.3333 12.7985 30.017 15.665 29.2955 19.0515L28.652 22.0762L31.5142 21.6688C32.8207 21.7772 40.0357 22.6373 40.9045 22.8605C41.0302 22.9255 41.1905 23.257 41.145 23.5603L39.7085 36.5083Z" fill="#183661"/>
</svg>
